<svg width="207" height="55" viewBox="0 0 207 55" fill="none" xmlns="http://www.w3.org/2000/svg">
<path d="M61.3821 51.7366C64.1342 52.4618 67.1255 52.5827 69.8775 51.9783C59.1087 50.8904 51.2116 41.341 52.1688 30.4618L45.1093 28.7695C44.1521 39.4069 51.092 49.1981 61.3821 51.7366Z" fill="#005BAA"/>
<path d="M39.8444 31.0658L51.8098 17.8899L56.3566 35.1757L64.6127 37.2306C64.6127 37.2306 59.3479 17.1647 56.2369 5.07676L55.6387 2.65918L31.5884 29.0108L39.8444 31.0658Z" fill="#005BAA"/>
<path d="M26.6825 29.1315C29.1953 28.0436 30.7507 26.2304 30.7507 23.9337C30.7507 19.8238 26.2039 17.4062 18.7854 17.4062H1.79468V41.9447H19.7427C27.1611 41.9447 32.0669 39.1645 32.0669 34.9337C32.0669 32.2744 30.1525 30.2194 26.6825 29.1315ZM17.7085 27.1975H10.5294V22.6041H17.5889C19.7427 22.6041 22.0161 23.3293 22.0161 24.9008C22.0161 26.4722 19.7427 27.1975 17.7085 27.1975ZM10.5294 31.67H18.3068C21.1785 31.67 23.0929 32.637 23.0929 34.0876C23.0929 35.5381 21.1785 36.626 18.3068 36.626H10.5294V31.67Z" fill="#005BAA"/>
<path d="M135.687 17.2861H126.952V41.8246H135.687V17.2861Z" fill="#005BAA"/>
<path d="M196.471 17.2861V30.7037L182.711 17.2861H173.976V41.8246H182.711V27.8026L197.308 41.8246H205.205V17.2861H196.471Z" fill="#005BAA"/>
<path d="M154.831 15.4727C144.421 15.4727 137.721 20.7913 137.721 29.132C137.721 37.4727 144.421 42.9122 154.831 42.9122C165.241 42.9122 171.942 37.4727 171.942 29.132C171.942 20.7913 165.241 15.4727 154.831 15.4727ZM154.831 36.6265C149.686 36.6265 146.695 33.8463 146.695 29.132C146.695 24.4177 149.806 21.7584 154.831 21.7584C159.857 21.7584 163.087 24.5386 163.087 29.2529C163.087 33.9672 159.976 36.7474 154.831 36.6265Z" fill="#005BAA"/>
<path d="M97.1584 17.2861V23.451H106.85L106.97 41.9455H114.389L114.508 23.451H124.2V17.2861H97.1584Z" fill="#005BAA"/>
<path d="M81.1248 15.4727C78.971 15.5935 76.8173 15.8353 74.7832 16.1979C69.7578 17.5276 67.1254 20.5496 67.4843 24.5386C67.7236 26.9562 69.1595 29.132 71.4329 30.099C74.1849 31.4287 77.0566 32.2749 80.0479 32.5166C86.0306 33.3628 87.5861 33.7254 88.1843 34.5716C88.5433 35.176 88.304 35.7803 87.4664 36.2639C85.3127 37.4727 78.8514 37.2309 73.467 35.7803C71.4329 35.176 69.3988 34.3298 67.4843 33.4836V40.3738L68.0826 40.6155C71.5525 41.7034 75.1421 42.4287 78.8514 42.7913C81.3641 42.9122 83.8768 42.9122 86.2699 42.7913C90.2184 42.3078 93.6884 40.7364 95.2439 38.5606C97.278 35.9012 97.1583 32.154 94.8849 29.7364C92.9705 27.9232 89.8595 26.8353 83.5179 26.11C78.3728 25.5056 76.3387 24.9012 75.8601 24.176C75.3815 23.4507 76.0994 22.3628 77.6549 22.0001C78.8514 21.7584 80.1676 21.6375 81.3641 21.7584C85.193 21.7584 89.0219 22.3628 92.6115 23.8133C93.4491 24.176 94.167 24.4177 94.167 24.4177L94.2867 18.3738L93.808 18.0111C91.5346 16.6814 85.0734 15.4727 81.1248 15.4727Z" fill="#005BAA"/>
</svg>
