<svg width="51" height="50" viewBox="0 0 51 50" fill="none" xmlns="http://www.w3.org/2000/svg">
<path d="M33.3125 2.34375C33.3125 1.04492 34.3574 0 35.6562 0C36.9551 0 38 1.04492 38 2.34375V6.25C41.4473 6.25 44.25 9.05273 44.25 12.5H48.1562C49.4551 12.5 50.5 13.5449 50.5 14.8438C50.5 16.1426 49.4551 17.1875 48.1562 17.1875H44.25V22.6562H48.1562C49.4551 22.6562 50.5 23.7012 50.5 25C50.5 26.2988 49.4551 27.3438 48.1562 27.3438H44.25V32.8125H48.1562C49.4551 32.8125 50.5 33.8574 50.5 35.1562C50.5 36.4551 49.4551 37.5 48.1562 37.5H44.25C44.25 40.9473 41.4473 43.75 38 43.75V47.6562C38 48.9551 36.9551 50 35.6562 50C34.3574 50 33.3125 48.9551 33.3125 47.6562V43.75H27.8438V47.6562C27.8438 48.9551 26.7988 50 25.5 50C24.2012 50 23.1562 48.9551 23.1562 47.6562V43.75H17.6875V47.6562C17.6875 48.9551 16.6426 50 15.3438 50C14.0449 50 13 48.9551 13 47.6562V43.75C9.55273 43.75 6.75 40.9473 6.75 37.5H2.84375C1.54492 37.5 0.5 36.4551 0.5 35.1562C0.5 33.8574 1.54492 32.8125 2.84375 32.8125H6.75V27.3438H2.84375C1.54492 27.3438 0.5 26.2988 0.5 25C0.5 23.7012 1.54492 22.6562 2.84375 22.6562H6.75V17.1875H2.84375C1.54492 17.1875 0.5 16.1426 0.5 14.8438C0.5 13.5449 1.54492 12.5 2.84375 12.5H6.75C6.75 9.05273 9.55273 6.25 13 6.25V2.34375C13 1.04492 14.0449 0 15.3438 0C16.6426 0 17.6875 1.04492 17.6875 2.34375V6.25H23.1562V2.34375C23.1562 1.04492 24.2012 0 25.5 0C26.7988 0 27.8438 1.04492 27.8438 2.34375V6.25H33.3125V2.34375ZM34.875 12.5H16.125C14.3965 12.5 13 13.8965 13 15.625V34.375C13 36.1035 14.3965 37.5 16.125 37.5H34.875C36.6035 37.5 38 36.1035 38 34.375V15.625C38 13.8965 36.6035 12.5 34.875 12.5ZM16.125 15.625H34.875V34.375H16.125V15.625Z" fill="#005BAA"/>
</svg>
