<svg width="45" height="50" viewBox="0 0 45 50" fill="none" xmlns="http://www.w3.org/2000/svg">
<path d="M16.1455 0.52981C16.9116 -0.18308 18.1 -0.173315 18.8661 0.539576C21.5768 3.06887 24.1205 5.79348 26.4973 8.7427C27.5777 7.33645 28.8054 5.80325 30.1313 4.55325C30.9071 3.83059 32.1054 3.83059 32.8813 4.56301C36.2795 7.78567 39.1571 12.0435 41.1804 16.0864C43.1741 20.0708 44.5 24.1431 44.5 27.0142C44.5 39.4751 34.6982 50.0025 22.5 50.0025C10.1643 50.0025 0.5 39.4654 0.5 27.0044C0.5 23.2544 2.24821 18.6743 4.95893 14.1431C7.69911 9.54348 11.5688 4.74856 16.1455 0.52981ZM22.667 40.6275C25.1518 40.6275 27.3518 39.9439 29.4241 38.5767C33.5589 35.7056 34.6688 29.9634 32.1839 25.4517C31.742 24.5728 30.6125 24.5142 29.9741 25.2564L27.4991 28.1177C26.8509 28.8599 25.6821 28.8404 25.0732 28.0689C23.4527 26.0181 20.5554 22.356 18.9054 20.2759C18.2866 19.4947 17.108 19.4849 16.4795 20.2661C13.1598 24.4165 11.4902 27.0337 11.4902 29.9732C11.5 36.6626 16.4696 40.6275 22.667 40.6275Z" fill="#005BAA"/>
</svg>
