<svg width="63" height="50" viewBox="0 0 63 50" fill="none" xmlns="http://www.w3.org/2000/svg">
<g clip-path="url(#clip0_266_2617)">
<path d="M53.5501 24.2192V24.5415L60.4112 17.7349C62.567 15.5962 62.567 12.1392 60.4112 10.0005L52.7232 2.3833C50.5674 0.244629 47.0828 0.244629 44.927 2.3833L40.9796 6.29932C40.7138 6.27002 40.4382 6.25049 40.1626 6.25049H29.1376C25.4856 6.25049 22.4832 8.98486 22.0895 12.5005H22.0501V24.2192C22.0501 26.3774 23.8121 28.1255 25.9876 28.1255C28.1631 28.1255 29.9251 26.3774 29.9251 24.2192V17.188V17.1782V15.6255H31.5001H44.8876C44.8876 15.6255 44.8876 15.6255 44.8974 15.6255H45.6751C50.026 15.6255 53.5501 19.1216 53.5501 23.438V24.2192ZM33.0751 18.7505V24.2192C33.0751 28.106 29.9054 31.2505 25.9876 31.2505C22.0698 31.2505 18.9001 28.106 18.9001 24.2192V12.6372C15.3662 13.2427 12.4229 15.7915 11.4188 19.2974L9.79463 24.9224L2.589 32.0708C0.433223 34.2095 0.433223 37.6665 2.589 39.8052L10.277 47.4321C12.4328 49.5708 15.9174 49.5708 18.0732 47.4321L21.7843 43.7505C21.8729 43.7505 21.9615 43.7603 22.0501 43.7603H37.8001C40.4087 43.7603 42.5251 41.6606 42.5251 39.0728C42.5251 38.5259 42.4267 37.9985 42.2593 37.5103H42.5251C45.1337 37.5103 47.2501 35.4106 47.2501 32.8228C47.2501 31.5728 46.7579 30.4399 45.9507 29.6001C48.4806 29.1118 50.3903 26.9048 50.4001 24.2485V24.2095C50.3903 21.2017 47.9293 18.7603 44.8876 18.7603H33.0751V18.7505Z" fill="#005BAA"/>
</g>
<defs>
<clipPath id="clip0_266_2617">
<rect width="63" height="50" fill="white"/>
</clipPath>
</defs>
</svg>
