<svg width="51" height="50" viewBox="0 0 51 50" fill="none" xmlns="http://www.w3.org/2000/svg">
<g clip-path="url(#clip0_266_2611)">
<path d="M25.5 4.6875C14.2793 4.6875 5.1875 13.7793 5.1875 25V28.9062C5.1875 30.2051 4.14258 31.25 2.84375 31.25C1.54492 31.25 0.5 30.2051 0.5 28.9062V25C0.5 11.1914 11.6914 0 25.5 0C39.3086 0 50.5 11.1914 50.5 25V39.0723C50.5 43.8184 46.6523 47.666 41.8965 47.666L31.125 47.6562C30.3145 49.0527 28.8008 50 27.0625 50H23.9375C21.3496 50 19.25 47.9004 19.25 45.3125C19.25 42.7246 21.3496 40.625 23.9375 40.625H27.0625C28.8008 40.625 30.3145 41.5723 31.125 42.9688L41.9062 42.9785C44.0645 42.9785 45.8125 41.2305 45.8125 39.0723V25C45.8125 13.7793 36.7207 4.6875 25.5 4.6875ZM14.5625 20.3125H16.125C17.8535 20.3125 19.25 21.709 19.25 23.4375V34.375C19.25 36.1035 17.8535 37.5 16.125 37.5H14.5625C11.1152 37.5 8.3125 34.6973 8.3125 31.25V26.5625C8.3125 23.1152 11.1152 20.3125 14.5625 20.3125ZM36.4375 20.3125C39.8848 20.3125 42.6875 23.1152 42.6875 26.5625V31.25C42.6875 34.6973 39.8848 37.5 36.4375 37.5H34.875C33.1465 37.5 31.75 36.1035 31.75 34.375V23.4375C31.75 21.709 33.1465 20.3125 34.875 20.3125H36.4375Z" fill="#005BAA"/>
</g>
<defs>
<clipPath id="clip0_266_2611">
<rect width="50" height="50" fill="white" transform="translate(0.5)"/>
</clipPath>
</defs>
</svg>
