<svg width="51" height="50" viewBox="0 0 51 50" fill="none" xmlns="http://www.w3.org/2000/svg">
<g clip-path="url(#clip0_266_2619)">
<path d="M45.8516 29.3359L28.2051 45.8105C27.4727 46.4941 26.5059 46.8749 25.5 46.8749C24.4941 46.8749 23.5273 46.4941 22.7949 45.8105L5.14844 29.3359C2.17969 26.5722 0.5 22.6952 0.5 18.6425V18.0761C0.5 11.2499 5.43164 5.4296 12.1602 4.30655C16.6133 3.56437 21.1445 5.01944 24.3281 8.20304L25.5 9.37491L26.6719 8.20304C29.8555 5.01944 34.3867 3.56437 38.8398 4.30655C45.5684 5.4296 50.5 11.2499 50.5 18.0761V18.6425C50.5 22.6952 48.8203 26.5722 45.8516 29.3359Z" fill="#005BAA"/>
</g>
<defs>
<clipPath id="clip0_266_2619">
<rect width="50" height="50" fill="white" transform="matrix(-1 0 0 1 50.5 0)"/>
</clipPath>
</defs>
</svg>
