<svg width="57" height="51" viewBox="0 0 57 51" fill="none" xmlns="http://www.w3.org/2000/svg">
<path d="M16.625 12.5879C16.625 17.9199 23.8589 27.4219 27.0354 31.3379C27.7974 32.2754 29.2125 32.2754 29.9646 31.3379C33.1411 27.4219 40.375 17.9199 40.375 12.5879C40.375 6.11328 35.0609 0.869141 28.5 0.869141C21.9391 0.869141 16.625 6.11328 16.625 12.5879ZM15.8333 20.4395C15.487 19.7656 15.1703 19.0918 14.8833 18.4277C14.8339 18.3105 14.7844 18.1836 14.7349 18.0664L3.25573 13.5352C1.69219 12.9199 0 14.0527 0 15.7129V42.1582C0 43.1152 0.593746 43.9746 1.49427 44.3359L15.8333 49.9902V20.4395ZM43.3833 14.375C43.1458 15.752 42.6708 17.1387 42.1167 18.4277C41.8297 19.0918 41.513 19.7656 41.1667 20.4395V44.9902L53.7443 49.9609C55.3078 50.5762 57 49.4434 57 47.7832V21.3379C57 20.3809 56.4062 19.5215 55.5057 19.1602L43.3734 14.375H43.3833ZM24.5615 33.291C23.1859 31.5918 21.0286 28.8281 19 25.7715V50.1172L38 44.7559V25.7715C35.9714 28.8281 33.8141 31.5918 32.4385 33.291C30.4099 35.791 26.5901 35.791 24.5615 33.291ZM28.5 15.7129C27.4502 15.7129 26.4434 15.3013 25.701 14.5688C24.9587 13.8362 24.5417 12.8426 24.5417 11.8066C24.5417 10.7706 24.9587 9.77707 25.701 9.04451C26.4434 8.31194 27.4502 7.90039 28.5 7.90039C29.5498 7.90039 30.5566 8.31194 31.299 9.04451C32.0413 9.77707 32.4583 10.7706 32.4583 11.8066C32.4583 12.8426 32.0413 13.8362 31.299 14.5688C30.5566 15.3013 29.5498 15.7129 28.5 15.7129Z" fill="#005BAA"/>
</svg>
