<svg width="59" height="50" viewBox="0 0 59 50" fill="none" xmlns="http://www.w3.org/2000/svg">
<g clip-path="url(#clip0_266_2605)">
<path d="M4.425 0C1.98203 0 0 2.09961 0 4.6875V35.9375C0 38.5254 1.98203 40.625 4.425 40.625H5.9C5.9 45.8008 9.86406 50 14.75 50C19.6359 50 23.6 45.8008 23.6 40.625H35.4C35.4 45.8008 39.3641 50 44.25 50C49.1359 50 53.1 45.8008 53.1 40.625H56.05C57.6817 40.625 59 39.2285 59 37.5C59 35.7715 57.6817 34.375 56.05 34.375V28.125V25V23.1738C56.05 21.5137 55.4323 19.9219 54.3261 18.75L47.2 11.2012C46.0938 10.0293 44.5911 9.375 43.0239 9.375H38.35V4.6875C38.35 2.09961 36.368 0 33.925 0H4.425ZM38.35 15.625H43.0239L50.15 23.1738V25H38.35V15.625ZM10.325 40.625C10.325 39.3818 10.7912 38.1895 11.6211 37.3104C12.4509 36.4314 13.5764 35.9375 14.75 35.9375C15.9236 35.9375 17.0491 36.4314 17.8789 37.3104C18.7088 38.1895 19.175 39.3818 19.175 40.625C19.175 41.8682 18.7088 43.0605 17.8789 43.9396C17.0491 44.8186 15.9236 45.3125 14.75 45.3125C13.5764 45.3125 12.4509 44.8186 11.6211 43.9396C10.7912 43.0605 10.325 41.8682 10.325 40.625ZM44.25 35.9375C45.4236 35.9375 46.5491 36.4314 47.3789 37.3104C48.2088 38.1895 48.675 39.3818 48.675 40.625C48.675 41.8682 48.2088 43.0605 47.3789 43.9396C46.5491 44.8186 45.4236 45.3125 44.25 45.3125C43.0764 45.3125 41.9509 44.8186 41.1211 43.9396C40.2912 43.0605 39.825 41.8682 39.825 40.625C39.825 39.3818 40.2912 38.1895 41.1211 37.3104C41.9509 36.4314 43.0764 35.9375 44.25 35.9375Z" fill="#005BAA"/>
</g>
<defs>
<clipPath id="clip0_266_2605">
<rect width="59" height="50" fill="white"/>
</clipPath>
</defs>
</svg>
